<mxfile modified="2024-03-03T14:59:02.945Z" host="Electron" agent="Mozilla/5.0 (Macintosh; Intel Mac OS X 10_15_7) AppleWebKit/537.36 (KHTML, like Gecko) draw.io/23.1.5 Chrome/120.0.6099.109 Electron/28.1.0 Safari/537.36" etag="1J_fxdADExZ4pMDAsRuU" version="23.1.5" type="device">
  <diagram id="Ht1M8jgEwFfnCIfOTk4-" name="Page-1">
    <mxGraphModel dx="1866" dy="1186" grid="1" gridSize="10" guides="1" tooltips="1" connect="1" arrows="1" fold="1" page="1" pageScale="1" pageWidth="1169" pageHeight="827" math="0" shadow="0">
      <root>
        <mxCell id="0" />
        <mxCell id="1" parent="0" />
        <mxCell id="VlhuwPT00PU0j__g9Q57-155" value="" style="rounded=0;whiteSpace=wrap;html=1;fillColor=#ffff88;strokeColor=#36393d;dashed=1;" vertex="1" parent="1">
          <mxGeometry x="45" y="270" width="120" height="356" as="geometry" />
        </mxCell>
        <mxCell id="VlhuwPT00PU0j__g9Q57-2" value="" style="rounded=0;whiteSpace=wrap;html=1;dashed=1;dashPattern=8 8;fillColor=#f5f5f5;fontColor=#333333;strokeColor=#666666;" vertex="1" parent="1">
          <mxGeometry x="190" y="60" width="1690" height="750" as="geometry" />
        </mxCell>
        <mxCell id="VlhuwPT00PU0j__g9Q57-3" value="" style="ellipse;shape=cloud;whiteSpace=wrap;html=1;fillColor=#dae8fc;strokeColor=#6c8ebf;" vertex="1" parent="1">
          <mxGeometry x="130" y="10" width="120" height="80" as="geometry" />
        </mxCell>
        <mxCell id="VlhuwPT00PU0j__g9Q57-4" value="&lt;font style=&quot;font-size: 24px;&quot;&gt;&lt;b&gt;Could Platform&lt;/b&gt;&lt;/font&gt;" style="text;html=1;align=center;verticalAlign=middle;whiteSpace=wrap;rounded=0;fillColor=#dae8fc;strokeColor=#6c8ebf;" vertex="1" parent="1">
          <mxGeometry x="200" y="105" width="200" height="30" as="geometry" />
        </mxCell>
        <mxCell id="VlhuwPT00PU0j__g9Q57-5" value="" style="sketch=0;points=[[0,0,0],[0.25,0,0],[0.5,0,0],[0.75,0,0],[1,0,0],[0,1,0],[0.25,1,0],[0.5,1,0],[0.75,1,0],[1,1,0],[0,0.25,0],[0,0.5,0],[0,0.75,0],[1,0.25,0],[1,0.5,0],[1,0.75,0]];outlineConnect=0;fontColor=#232F3E;fillColor=#ED7100;strokeColor=#ffffff;dashed=0;verticalLabelPosition=bottom;verticalAlign=top;align=center;html=1;fontSize=12;fontStyle=0;aspect=fixed;shape=mxgraph.aws4.resourceIcon;resIcon=mxgraph.aws4.eks_anywhere;" vertex="1" parent="1">
          <mxGeometry x="430" y="96" width="48" height="48" as="geometry" />
        </mxCell>
        <mxCell id="VlhuwPT00PU0j__g9Q57-6" value="&lt;b&gt;&lt;font style=&quot;font-size: 18px;&quot;&gt;Kubernetes&lt;/font&gt;&lt;/b&gt;" style="text;html=1;align=center;verticalAlign=middle;whiteSpace=wrap;rounded=0;" vertex="1" parent="1">
          <mxGeometry x="490" y="105" width="110" height="30" as="geometry" />
        </mxCell>
        <mxCell id="VlhuwPT00PU0j__g9Q57-7" value="&lt;b&gt;Devices Client&lt;/b&gt;" style="sketch=0;outlineConnect=0;gradientColor=none;fontColor=#545B64;strokeColor=none;fillColor=#879196;dashed=0;verticalLabelPosition=bottom;verticalAlign=top;align=center;html=1;fontSize=12;fontStyle=0;aspect=fixed;shape=mxgraph.aws4.illustration_devices;pointerEvents=1" vertex="1" parent="1">
          <mxGeometry x="60" y="417.6" width="80" height="58.4" as="geometry" />
        </mxCell>
        <mxCell id="VlhuwPT00PU0j__g9Q57-9" value="" style="edgeStyle=orthogonalEdgeStyle;html=1;endArrow=block;elbow=vertical;startArrow=none;endFill=1;strokeColor=#545B64;rounded=0;" edge="1" parent="1">
          <mxGeometry width="100" relative="1" as="geometry">
            <mxPoint x="153" y="444" as="sourcePoint" />
            <mxPoint x="233" y="444" as="targetPoint" />
            <Array as="points">
              <mxPoint x="173" y="444" />
              <mxPoint x="173" y="444" />
            </Array>
          </mxGeometry>
        </mxCell>
        <mxCell id="VlhuwPT00PU0j__g9Q57-10" value="&lt;b&gt;Network Firewall&lt;/b&gt;" style="sketch=0;points=[[0,0,0],[0.25,0,0],[0.5,0,0],[0.75,0,0],[1,0,0],[0,1,0],[0.25,1,0],[0.5,1,0],[0.75,1,0],[1,1,0],[0,0.25,0],[0,0.5,0],[0,0.75,0],[1,0.25,0],[1,0.5,0],[1,0.75,0]];outlineConnect=0;fontColor=#232F3E;fillColor=#DD344C;strokeColor=#ffffff;dashed=0;verticalLabelPosition=bottom;verticalAlign=top;align=center;html=1;fontSize=12;fontStyle=0;aspect=fixed;shape=mxgraph.aws4.resourceIcon;resIcon=mxgraph.aws4.firewall_manager;" vertex="1" parent="1">
          <mxGeometry x="235" y="417" width="50" height="50" as="geometry" />
        </mxCell>
        <mxCell id="VlhuwPT00PU0j__g9Q57-12" value="&lt;b&gt;Nginx&lt;/b&gt;" style="sketch=0;points=[[0,0,0],[0.25,0,0],[0.5,0,0],[0.75,0,0],[1,0,0],[0,1,0],[0.25,1,0],[0.5,1,0],[0.75,1,0],[1,1,0],[0,0.25,0],[0,0.5,0],[0,0.75,0],[1,0.25,0],[1,0.5,0],[1,0.75,0]];outlineConnect=0;fontColor=#232F3E;fillColor=#8C4FFF;strokeColor=#ffffff;dashed=0;verticalLabelPosition=bottom;verticalAlign=top;align=center;html=1;fontSize=12;fontStyle=0;aspect=fixed;shape=mxgraph.aws4.resourceIcon;resIcon=mxgraph.aws4.networking_and_content_delivery;" vertex="1" parent="1">
          <mxGeometry x="438" y="418" width="50" height="50" as="geometry" />
        </mxCell>
        <mxCell id="VlhuwPT00PU0j__g9Q57-15" value="&lt;b&gt;ELB&lt;/b&gt;" style="sketch=0;points=[[0,0,0],[0.25,0,0],[0.5,0,0],[0.75,0,0],[1,0,0],[0,1,0],[0.25,1,0],[0.5,1,0],[0.75,1,0],[1,1,0],[0,0.25,0],[0,0.5,0],[0,0.75,0],[1,0.25,0],[1,0.5,0],[1,0.75,0]];outlineConnect=0;fontColor=#232F3E;fillColor=#8C4FFF;strokeColor=#ffffff;dashed=0;verticalLabelPosition=bottom;verticalAlign=top;align=center;html=1;fontSize=12;fontStyle=0;aspect=fixed;shape=mxgraph.aws4.resourceIcon;resIcon=mxgraph.aws4.elastic_load_balancing;" vertex="1" parent="1">
          <mxGeometry x="338" y="418" width="50" height="50" as="geometry" />
        </mxCell>
        <mxCell id="VlhuwPT00PU0j__g9Q57-16" value="&lt;b&gt;ELB&lt;/b&gt;" style="sketch=0;points=[[0,0,0],[0.25,0,0],[0.5,0,0],[0.75,0,0],[1,0,0],[0,1,0],[0.25,1,0],[0.5,1,0],[0.75,1,0],[1,1,0],[0,0.25,0],[0,0.5,0],[0,0.75,0],[1,0.25,0],[1,0.5,0],[1,0.75,0]];outlineConnect=0;fontColor=#232F3E;fillColor=#8C4FFF;strokeColor=#ffffff;dashed=0;verticalLabelPosition=bottom;verticalAlign=top;align=center;html=1;fontSize=12;fontStyle=0;aspect=fixed;shape=mxgraph.aws4.resourceIcon;resIcon=mxgraph.aws4.elastic_load_balancing;" vertex="1" parent="1">
          <mxGeometry x="527" y="418" width="50" height="50" as="geometry" />
        </mxCell>
        <mxCell id="VlhuwPT00PU0j__g9Q57-17" value="&lt;b&gt;Container&amp;nbsp; Service LB&lt;/b&gt;" style="sketch=0;points=[[0,0,0],[0.25,0,0],[0.5,0,0],[0.75,0,0],[1,0,0],[0,1,0],[0.25,1,0],[0.5,1,0],[0.75,1,0],[1,1,0],[0,0.25,0],[0,0.5,0],[0,0.75,0],[1,0.25,0],[1,0.5,0],[1,0.75,0]];outlineConnect=0;fontColor=#232F3E;fillColor=#7AA116;strokeColor=#ffffff;dashed=0;verticalLabelPosition=bottom;verticalAlign=top;align=center;html=1;fontSize=12;fontStyle=0;aspect=fixed;shape=mxgraph.aws4.resourceIcon;resIcon=mxgraph.aws4.internet_of_things;" vertex="1" parent="1">
          <mxGeometry x="620" y="418" width="50" height="50" as="geometry" />
        </mxCell>
        <mxCell id="VlhuwPT00PU0j__g9Q57-18" value="" style="rounded=0;whiteSpace=wrap;html=1;dashed=1;fillColor=#f0a30a;fontColor=#000000;strokeColor=#BD7000;" vertex="1" parent="1">
          <mxGeometry x="730" y="290" width="860" height="320" as="geometry" />
        </mxCell>
        <mxCell id="VlhuwPT00PU0j__g9Q57-22" value="" style="rounded=1;whiteSpace=wrap;html=1;dashed=1;fillColor=#dae8fc;strokeColor=#6c8ebf;" vertex="1" parent="1">
          <mxGeometry x="840" y="87" width="220" height="130" as="geometry" />
        </mxCell>
        <mxCell id="VlhuwPT00PU0j__g9Q57-19" value="" style="sketch=0;points=[[0,0,0],[0.25,0,0],[0.5,0,0],[0.75,0,0],[1,0,0],[0,1,0],[0.25,1,0],[0.5,1,0],[0.75,1,0],[1,1,0],[0,0.25,0],[0,0.5,0],[0,0.75,0],[1,0.25,0],[1,0.5,0],[1,0.75,0]];outlineConnect=0;fontColor=#232F3E;fillColor=#7AA116;strokeColor=#ffffff;dashed=0;verticalLabelPosition=bottom;verticalAlign=top;align=center;html=1;fontSize=12;fontStyle=0;aspect=fixed;shape=mxgraph.aws4.resourceIcon;resIcon=mxgraph.aws4.storage;" vertex="1" parent="1">
          <mxGeometry x="920" y="96" width="50" height="50" as="geometry" />
        </mxCell>
        <mxCell id="VlhuwPT00PU0j__g9Q57-20" value="" style="sketch=0;points=[[0,0,0],[0.25,0,0],[0.5,0,0],[0.75,0,0],[1,0,0],[0,1,0],[0.25,1,0],[0.5,1,0],[0.75,1,0],[1,1,0],[0,0.25,0],[0,0.5,0],[0,0.75,0],[1,0.25,0],[1,0.5,0],[1,0.75,0]];outlineConnect=0;fontColor=#232F3E;fillColor=#7AA116;strokeColor=#ffffff;dashed=0;verticalLabelPosition=bottom;verticalAlign=top;align=center;html=1;fontSize=12;fontStyle=0;aspect=fixed;shape=mxgraph.aws4.resourceIcon;resIcon=mxgraph.aws4.storage;" vertex="1" parent="1">
          <mxGeometry x="870" y="160" width="50" height="50" as="geometry" />
        </mxCell>
        <mxCell id="VlhuwPT00PU0j__g9Q57-21" value="" style="sketch=0;points=[[0,0,0],[0.25,0,0],[0.5,0,0],[0.75,0,0],[1,0,0],[0,1,0],[0.25,1,0],[0.5,1,0],[0.75,1,0],[1,1,0],[0,0.25,0],[0,0.5,0],[0,0.75,0],[1,0.25,0],[1,0.5,0],[1,0.75,0]];outlineConnect=0;fontColor=#232F3E;fillColor=#7AA116;strokeColor=#ffffff;dashed=0;verticalLabelPosition=bottom;verticalAlign=top;align=center;html=1;fontSize=12;fontStyle=0;aspect=fixed;shape=mxgraph.aws4.resourceIcon;resIcon=mxgraph.aws4.storage;" vertex="1" parent="1">
          <mxGeometry x="970" y="160" width="50" height="50" as="geometry" />
        </mxCell>
        <mxCell id="VlhuwPT00PU0j__g9Q57-23" value="&lt;b&gt;Service Regisry&lt;/b&gt;" style="text;html=1;align=center;verticalAlign=middle;whiteSpace=wrap;rounded=0;" vertex="1" parent="1">
          <mxGeometry x="890" y="58" width="110" height="30" as="geometry" />
        </mxCell>
        <mxCell id="VlhuwPT00PU0j__g9Q57-25" value="" style="rounded=1;whiteSpace=wrap;html=1;dashed=1;fillColor=#dae8fc;strokeColor=#6c8ebf;" vertex="1" parent="1">
          <mxGeometry x="1100" y="87" width="220" height="130" as="geometry" />
        </mxCell>
        <mxCell id="VlhuwPT00PU0j__g9Q57-24" value="" style="sketch=0;points=[[0,0,0],[0.25,0,0],[0.5,0,0],[0.75,0,0],[1,0,0],[0,1,0],[0.25,1,0],[0.5,1,0],[0.75,1,0],[1,1,0],[0,0.25,0],[0,0.5,0],[0,0.75,0],[1,0.25,0],[1,0.5,0],[1,0.75,0]];outlineConnect=0;fontColor=#232F3E;fillColor=#7AA116;strokeColor=#ffffff;dashed=0;verticalLabelPosition=bottom;verticalAlign=top;align=center;html=1;fontSize=12;fontStyle=0;aspect=fixed;shape=mxgraph.aws4.resourceIcon;resIcon=mxgraph.aws4.iot_things_graph;" vertex="1" parent="1">
          <mxGeometry x="1185" y="96" width="50" height="50" as="geometry" />
        </mxCell>
        <mxCell id="VlhuwPT00PU0j__g9Q57-27" value="" style="sketch=0;points=[[0,0,0],[0.25,0,0],[0.5,0,0],[0.75,0,0],[1,0,0],[0,1,0],[0.25,1,0],[0.5,1,0],[0.75,1,0],[1,1,0],[0,0.25,0],[0,0.5,0],[0,0.75,0],[1,0.25,0],[1,0.5,0],[1,0.75,0]];outlineConnect=0;fontColor=#232F3E;fillColor=#7AA116;strokeColor=#ffffff;dashed=0;verticalLabelPosition=bottom;verticalAlign=top;align=center;html=1;fontSize=12;fontStyle=0;aspect=fixed;shape=mxgraph.aws4.resourceIcon;resIcon=mxgraph.aws4.iot_things_graph;" vertex="1" parent="1">
          <mxGeometry x="1135" y="160" width="50" height="50" as="geometry" />
        </mxCell>
        <mxCell id="VlhuwPT00PU0j__g9Q57-28" value="" style="sketch=0;points=[[0,0,0],[0.25,0,0],[0.5,0,0],[0.75,0,0],[1,0,0],[0,1,0],[0.25,1,0],[0.5,1,0],[0.75,1,0],[1,1,0],[0,0.25,0],[0,0.5,0],[0,0.75,0],[1,0.25,0],[1,0.5,0],[1,0.75,0]];outlineConnect=0;fontColor=#232F3E;fillColor=#7AA116;strokeColor=#ffffff;dashed=0;verticalLabelPosition=bottom;verticalAlign=top;align=center;html=1;fontSize=12;fontStyle=0;aspect=fixed;shape=mxgraph.aws4.resourceIcon;resIcon=mxgraph.aws4.iot_things_graph;" vertex="1" parent="1">
          <mxGeometry x="1235" y="159" width="50" height="50" as="geometry" />
        </mxCell>
        <mxCell id="VlhuwPT00PU0j__g9Q57-29" value="&lt;b&gt;Service Config Server&lt;/b&gt;" style="text;html=1;align=center;verticalAlign=middle;whiteSpace=wrap;rounded=0;" vertex="1" parent="1">
          <mxGeometry x="1125" y="60" width="175" height="30" as="geometry" />
        </mxCell>
        <mxCell id="VlhuwPT00PU0j__g9Q57-30" value="" style="rounded=1;whiteSpace=wrap;html=1;dashed=1;fillColor=#dae8fc;strokeColor=#6c8ebf;" vertex="1" parent="1">
          <mxGeometry x="1350" y="87" width="220" height="130" as="geometry" />
        </mxCell>
        <mxCell id="VlhuwPT00PU0j__g9Q57-31" value="&lt;b&gt;Distributed file system&lt;/b&gt;" style="text;html=1;align=center;verticalAlign=middle;whiteSpace=wrap;rounded=0;" vertex="1" parent="1">
          <mxGeometry x="1370" y="60" width="175" height="30" as="geometry" />
        </mxCell>
        <mxCell id="VlhuwPT00PU0j__g9Q57-32" value="&lt;b&gt;Etcd&lt;/b&gt;" style="text;html=1;align=center;verticalAlign=middle;whiteSpace=wrap;rounded=0;" vertex="1" parent="1">
          <mxGeometry x="1005" y="96" width="60" height="30" as="geometry" />
        </mxCell>
        <mxCell id="VlhuwPT00PU0j__g9Q57-33" value="" style="sketch=0;points=[[0,0,0],[0.25,0,0],[0.5,0,0],[0.75,0,0],[1,0,0],[0,1,0],[0.25,1,0],[0.5,1,0],[0.75,1,0],[1,1,0],[0,0.25,0],[0,0.5,0],[0,0.75,0],[1,0.25,0],[1,0.5,0],[1,0.75,0]];outlineConnect=0;fontColor=#232F3E;fillColor=#ED7100;strokeColor=#ffffff;dashed=0;verticalLabelPosition=bottom;verticalAlign=top;align=center;html=1;fontSize=12;fontStyle=0;aspect=fixed;shape=mxgraph.aws4.resourceIcon;resIcon=mxgraph.aws4.eks_anywhere;" vertex="1" parent="1">
          <mxGeometry x="980" y="96" width="30" height="30" as="geometry" />
        </mxCell>
        <mxCell id="VlhuwPT00PU0j__g9Q57-34" value="&lt;b&gt;Nacos&lt;/b&gt;" style="text;html=1;align=center;verticalAlign=middle;whiteSpace=wrap;rounded=0;" vertex="1" parent="1">
          <mxGeometry x="1260" y="87" width="60" height="30" as="geometry" />
        </mxCell>
        <mxCell id="VlhuwPT00PU0j__g9Q57-35" value="" style="sketch=0;points=[[0,0,0],[0.25,0,0],[0.5,0,0],[0.75,0,0],[1,0,0],[0,1,0],[0.25,1,0],[0.5,1,0],[0.75,1,0],[1,1,0],[0,0.25,0],[0,0.5,0],[0,0.75,0],[1,0.25,0],[1,0.5,0],[1,0.75,0]];outlineConnect=0;fontColor=#232F3E;fillColor=#7AA116;strokeColor=#ffffff;dashed=0;verticalLabelPosition=bottom;verticalAlign=top;align=center;html=1;fontSize=12;fontStyle=0;aspect=fixed;shape=mxgraph.aws4.resourceIcon;resIcon=mxgraph.aws4.s3;" vertex="1" parent="1">
          <mxGeometry x="1380" y="103" width="50" height="50" as="geometry" />
        </mxCell>
        <mxCell id="VlhuwPT00PU0j__g9Q57-36" value="" style="sketch=0;points=[[0,0,0],[0.25,0,0],[0.5,0,0],[0.75,0,0],[1,0,0],[0,1,0],[0.25,1,0],[0.5,1,0],[0.75,1,0],[1,1,0],[0,0.25,0],[0,0.5,0],[0,0.75,0],[1,0.25,0],[1,0.5,0],[1,0.75,0]];outlineConnect=0;fontColor=#232F3E;fillColor=#7AA116;strokeColor=#ffffff;dashed=0;verticalLabelPosition=bottom;verticalAlign=top;align=center;html=1;fontSize=12;fontStyle=0;aspect=fixed;shape=mxgraph.aws4.resourceIcon;resIcon=mxgraph.aws4.s3;" vertex="1" parent="1">
          <mxGeometry x="1460" y="105" width="50" height="50" as="geometry" />
        </mxCell>
        <mxCell id="VlhuwPT00PU0j__g9Q57-37" value="" style="sketch=0;points=[[0,0,0],[0.25,0,0],[0.5,0,0],[0.75,0,0],[1,0,0],[0,1,0],[0.25,1,0],[0.5,1,0],[0.75,1,0],[1,1,0],[0,0.25,0],[0,0.5,0],[0,0.75,0],[1,0.25,0],[1,0.5,0],[1,0.75,0]];outlineConnect=0;fontColor=#232F3E;fillColor=#7AA116;strokeColor=#ffffff;dashed=0;verticalLabelPosition=bottom;verticalAlign=top;align=center;html=1;fontSize=12;fontStyle=0;aspect=fixed;shape=mxgraph.aws4.resourceIcon;resIcon=mxgraph.aws4.s3;" vertex="1" parent="1">
          <mxGeometry x="1380" y="162" width="50" height="50" as="geometry" />
        </mxCell>
        <mxCell id="VlhuwPT00PU0j__g9Q57-38" value="" style="sketch=0;points=[[0,0,0],[0.25,0,0],[0.5,0,0],[0.75,0,0],[1,0,0],[0,1,0],[0.25,1,0],[0.5,1,0],[0.75,1,0],[1,1,0],[0,0.25,0],[0,0.5,0],[0,0.75,0],[1,0.25,0],[1,0.5,0],[1,0.75,0]];outlineConnect=0;fontColor=#232F3E;fillColor=#7AA116;strokeColor=#ffffff;dashed=0;verticalLabelPosition=bottom;verticalAlign=top;align=center;html=1;fontSize=12;fontStyle=0;aspect=fixed;shape=mxgraph.aws4.resourceIcon;resIcon=mxgraph.aws4.s3;" vertex="1" parent="1">
          <mxGeometry x="1460" y="161" width="50" height="50" as="geometry" />
        </mxCell>
        <mxCell id="VlhuwPT00PU0j__g9Q57-39" value="Aliyun OSS/S3" style="text;html=1;align=center;verticalAlign=middle;whiteSpace=wrap;rounded=0;fontStyle=1" vertex="1" parent="1">
          <mxGeometry x="1510" y="96" width="60" height="30" as="geometry" />
        </mxCell>
        <mxCell id="VlhuwPT00PU0j__g9Q57-40" value="&lt;b&gt;Metric Monitor&lt;/b&gt;" style="sketch=0;outlineConnect=0;fontColor=#232F3E;gradientColor=none;fillColor=#E7157B;strokeColor=none;dashed=0;verticalLabelPosition=bottom;verticalAlign=top;align=center;html=1;fontSize=12;fontStyle=0;aspect=fixed;pointerEvents=1;shape=mxgraph.aws4.cloudwatch_cross_account_observability;" vertex="1" parent="1">
          <mxGeometry x="680" y="180" width="50" height="50" as="geometry" />
        </mxCell>
        <mxCell id="VlhuwPT00PU0j__g9Q57-41" value="" style="endArrow=classic;startArrow=classic;html=1;rounded=0;" edge="1" parent="1">
          <mxGeometry width="50" height="50" relative="1" as="geometry">
            <mxPoint x="880" y="154" as="sourcePoint" />
            <mxPoint x="910" y="124" as="targetPoint" />
          </mxGeometry>
        </mxCell>
        <mxCell id="VlhuwPT00PU0j__g9Q57-42" value="" style="endArrow=classic;startArrow=classic;html=1;rounded=0;" edge="1" parent="1">
          <mxGeometry width="50" height="50" relative="1" as="geometry">
            <mxPoint x="1005.9999999999991" y="156" as="sourcePoint" />
            <mxPoint x="975.9999999999991" y="126" as="targetPoint" />
          </mxGeometry>
        </mxCell>
        <mxCell id="VlhuwPT00PU0j__g9Q57-44" value="" style="edgeStyle=orthogonalEdgeStyle;html=1;endArrow=block;elbow=vertical;startArrow=block;startFill=1;endFill=1;strokeColor=#545B64;rounded=0;" edge="1" parent="1">
          <mxGeometry width="100" relative="1" as="geometry">
            <mxPoint x="924" y="188" as="sourcePoint" />
            <mxPoint x="964" y="188" as="targetPoint" />
          </mxGeometry>
        </mxCell>
        <mxCell id="VlhuwPT00PU0j__g9Q57-48" value="" style="edgeStyle=segmentEdgeStyle;endArrow=classic;html=1;curved=0;rounded=0;endSize=8;startSize=8;exitX=0.454;exitY=0.08;exitDx=0;exitDy=0;exitPerimeter=0;" edge="1" parent="1" source="VlhuwPT00PU0j__g9Q57-2" target="VlhuwPT00PU0j__g9Q57-17">
          <mxGeometry width="50" height="50" relative="1" as="geometry">
            <mxPoint x="790" y="310" as="sourcePoint" />
            <mxPoint x="840" y="260" as="targetPoint" />
          </mxGeometry>
        </mxCell>
        <mxCell id="VlhuwPT00PU0j__g9Q57-49" value="&lt;font style=&quot;font-size: 12px;&quot;&gt;Fetch the servise list&lt;/font&gt;" style="edgeLabel;html=1;align=center;verticalAlign=middle;resizable=0;points=[];" vertex="1" connectable="0" parent="VlhuwPT00PU0j__g9Q57-48">
          <mxGeometry x="-0.1011" y="-1" relative="1" as="geometry">
            <mxPoint x="-43" y="176" as="offset" />
          </mxGeometry>
        </mxCell>
        <mxCell id="VlhuwPT00PU0j__g9Q57-50" value="App Container Cluster" style="text;html=1;align=center;verticalAlign=middle;whiteSpace=wrap;rounded=0;" vertex="1" parent="1">
          <mxGeometry x="729" y="295" width="100" height="30" as="geometry" />
        </mxCell>
        <mxCell id="VlhuwPT00PU0j__g9Q57-51" value="&lt;b&gt;Front End Service&lt;/b&gt;" style="sketch=0;points=[[0,0,0],[0.25,0,0],[0.5,0,0],[0.75,0,0],[1,0,0],[0,1,0],[0.25,1,0],[0.5,1,0],[0.75,1,0],[1,1,0],[0,0.25,0],[0,0.5,0],[0,0.75,0],[1,0.25,0],[1,0.5,0],[1,0.75,0]];outlineConnect=0;fontColor=#232F3E;fillColor=#C925D1;strokeColor=#ffffff;dashed=0;verticalLabelPosition=bottom;verticalAlign=top;align=center;html=1;fontSize=12;fontStyle=0;aspect=fixed;shape=mxgraph.aws4.resourceIcon;resIcon=mxgraph.aws4.cloud_development_kit;" vertex="1" parent="1">
          <mxGeometry x="759" y="417.8" width="50" height="50" as="geometry" />
        </mxCell>
        <mxCell id="VlhuwPT00PU0j__g9Q57-55" value="" style="rounded=1;whiteSpace=wrap;html=1;dashed=1;dashPattern=8 8;" vertex="1" parent="1">
          <mxGeometry x="840" y="335.5" width="65" height="204.5" as="geometry" />
        </mxCell>
        <mxCell id="VlhuwPT00PU0j__g9Q57-56" value="" style="sketch=0;outlineConnect=0;fontColor=#232F3E;gradientColor=none;fillColor=#E7157B;strokeColor=none;dashed=0;verticalLabelPosition=bottom;verticalAlign=top;align=center;html=1;fontSize=12;fontStyle=0;aspect=fixed;pointerEvents=1;shape=mxgraph.aws4.endpoint;" vertex="1" parent="1">
          <mxGeometry x="847" y="350" width="50" height="50" as="geometry" />
        </mxCell>
        <mxCell id="VlhuwPT00PU0j__g9Q57-57" value="" style="sketch=0;outlineConnect=0;fontColor=#232F3E;gradientColor=none;fillColor=#E7157B;strokeColor=none;dashed=0;verticalLabelPosition=bottom;verticalAlign=top;align=center;html=1;fontSize=12;fontStyle=0;aspect=fixed;pointerEvents=1;shape=mxgraph.aws4.endpoint;" vertex="1" parent="1">
          <mxGeometry x="847.5" y="411" width="50" height="50" as="geometry" />
        </mxCell>
        <mxCell id="VlhuwPT00PU0j__g9Q57-58" value="`" style="sketch=0;outlineConnect=0;fontColor=#232F3E;gradientColor=none;fillColor=#E7157B;strokeColor=none;dashed=0;verticalLabelPosition=bottom;verticalAlign=top;align=center;html=1;fontSize=12;fontStyle=0;aspect=fixed;pointerEvents=1;shape=mxgraph.aws4.endpoint;" vertex="1" parent="1">
          <mxGeometry x="847.5" y="476" width="50" height="50" as="geometry" />
        </mxCell>
        <mxCell id="VlhuwPT00PU0j__g9Q57-59" value="API Gateway Cluster" style="text;html=1;align=center;verticalAlign=middle;whiteSpace=wrap;rounded=0;fontStyle=1" vertex="1" parent="1">
          <mxGeometry x="811" y="545" width="140" height="30" as="geometry" />
        </mxCell>
        <mxCell id="VlhuwPT00PU0j__g9Q57-60" value="" style="rounded=1;whiteSpace=wrap;html=1;dashed=1;dashPattern=1 4;fillColor=#e1d5e7;strokeColor=#9673a6;" vertex="1" parent="1">
          <mxGeometry x="1020" y="310" width="521" height="280" as="geometry" />
        </mxCell>
        <mxCell id="VlhuwPT00PU0j__g9Q57-61" value="UAT Cluster" style="text;html=1;align=center;verticalAlign=middle;whiteSpace=wrap;rounded=0;rotation=90;fontStyle=1" vertex="1" parent="1">
          <mxGeometry x="970" y="413" width="140" height="30" as="geometry" />
        </mxCell>
        <mxCell id="VlhuwPT00PU0j__g9Q57-62" value="" style="rounded=1;whiteSpace=wrap;html=1;dashed=1;dashPattern=12 12;" vertex="1" parent="1">
          <mxGeometry x="1063" y="357" width="65" height="160" as="geometry" />
        </mxCell>
        <mxCell id="VlhuwPT00PU0j__g9Q57-63" value="" style="sketch=0;points=[[0,0,0],[0.25,0,0],[0.5,0,0],[0.75,0,0],[1,0,0],[0,1,0],[0.25,1,0],[0.5,1,0],[0.75,1,0],[1,1,0],[0,0.25,0],[0,0.5,0],[0,0.75,0],[1,0.25,0],[1,0.5,0],[1,0.75,0]];outlineConnect=0;fontColor=#232F3E;fillColor=#ED7100;strokeColor=#ffffff;dashed=0;verticalLabelPosition=bottom;verticalAlign=top;align=center;html=1;fontSize=12;fontStyle=0;aspect=fixed;shape=mxgraph.aws4.resourceIcon;resIcon=mxgraph.aws4.containers;" vertex="1" parent="1">
          <mxGeometry x="1069.5" y="378" width="50" height="50" as="geometry" />
        </mxCell>
        <mxCell id="VlhuwPT00PU0j__g9Q57-64" value="" style="sketch=0;points=[[0,0,0],[0.25,0,0],[0.5,0,0],[0.75,0,0],[1,0,0],[0,1,0],[0.25,1,0],[0.5,1,0],[0.75,1,0],[1,1,0],[0,0.25,0],[0,0.5,0],[0,0.75,0],[1,0.25,0],[1,0.5,0],[1,0.75,0]];outlineConnect=0;fontColor=#232F3E;fillColor=#ED7100;strokeColor=#ffffff;dashed=0;verticalLabelPosition=bottom;verticalAlign=top;align=center;html=1;fontSize=12;fontStyle=0;aspect=fixed;shape=mxgraph.aws4.resourceIcon;resIcon=mxgraph.aws4.containers;" vertex="1" parent="1">
          <mxGeometry x="1069.5" y="452" width="50" height="50" as="geometry" />
        </mxCell>
        <mxCell id="VlhuwPT00PU0j__g9Q57-68" value="" style="rounded=1;whiteSpace=wrap;html=1;dashed=1;dashPattern=12 12;" vertex="1" parent="1">
          <mxGeometry x="1227.5" y="357.75" width="65" height="160" as="geometry" />
        </mxCell>
        <mxCell id="VlhuwPT00PU0j__g9Q57-69" value="" style="sketch=0;points=[[0,0,0],[0.25,0,0],[0.5,0,0],[0.75,0,0],[1,0,0],[0,1,0],[0.25,1,0],[0.5,1,0],[0.75,1,0],[1,1,0],[0,0.25,0],[0,0.5,0],[0,0.75,0],[1,0.25,0],[1,0.5,0],[1,0.75,0]];outlineConnect=0;fontColor=#232F3E;fillColor=#ED7100;strokeColor=#ffffff;dashed=0;verticalLabelPosition=bottom;verticalAlign=top;align=center;html=1;fontSize=12;fontStyle=0;aspect=fixed;shape=mxgraph.aws4.resourceIcon;resIcon=mxgraph.aws4.containers;" vertex="1" parent="1">
          <mxGeometry x="1235" y="378.75" width="50" height="50" as="geometry" />
        </mxCell>
        <mxCell id="VlhuwPT00PU0j__g9Q57-70" value="" style="sketch=0;points=[[0,0,0],[0.25,0,0],[0.5,0,0],[0.75,0,0],[1,0,0],[0,1,0],[0.25,1,0],[0.5,1,0],[0.75,1,0],[1,1,0],[0,0.25,0],[0,0.5,0],[0,0.75,0],[1,0.25,0],[1,0.5,0],[1,0.75,0]];outlineConnect=0;fontColor=#232F3E;fillColor=#ED7100;strokeColor=#ffffff;dashed=0;verticalLabelPosition=bottom;verticalAlign=top;align=center;html=1;fontSize=12;fontStyle=0;aspect=fixed;shape=mxgraph.aws4.resourceIcon;resIcon=mxgraph.aws4.containers;" vertex="1" parent="1">
          <mxGeometry x="1235" y="452.75" width="50" height="50" as="geometry" />
        </mxCell>
        <mxCell id="VlhuwPT00PU0j__g9Q57-73" value="CMC Cluster" style="text;html=1;align=center;verticalAlign=middle;whiteSpace=wrap;rounded=0;fontStyle=1" vertex="1" parent="1">
          <mxGeometry x="1277.5" y="311.8" width="102.5" height="30" as="geometry" />
        </mxCell>
        <mxCell id="VlhuwPT00PU0j__g9Q57-74" value="&lt;b&gt;Task Scheduing Platform&lt;/b&gt;" style="sketch=0;points=[[0,0,0],[0.25,0,0],[0.5,0,0],[0.75,0,0],[1,0,0],[0,1,0],[0.25,1,0],[0.5,1,0],[0.75,1,0],[1,1,0],[0,0.25,0],[0,0.5,0],[0,0.75,0],[1,0.25,0],[1,0.5,0],[1,0.75,0]];outlineConnect=0;fontColor=#232F3E;fillColor=#ED7100;strokeColor=#ffffff;dashed=0;verticalLabelPosition=bottom;verticalAlign=top;align=center;html=1;fontSize=12;fontStyle=0;aspect=fixed;shape=mxgraph.aws4.resourceIcon;resIcon=mxgraph.aws4.batch;" vertex="1" parent="1">
          <mxGeometry x="1643" y="341.8" width="50" height="50" as="geometry" />
        </mxCell>
        <mxCell id="VlhuwPT00PU0j__g9Q57-75" value="&lt;b&gt;Log Search Cluster&lt;/b&gt;" style="sketch=0;points=[[0,0,0],[0.25,0,0],[0.5,0,0],[0.75,0,0],[1,0,0],[0,1,0],[0.25,1,0],[0.5,1,0],[0.75,1,0],[1,1,0],[0,0.25,0],[0,0.5,0],[0,0.75,0],[1,0.25,0],[1,0.5,0],[1,0.75,0]];outlineConnect=0;fontColor=#232F3E;fillColor=#8C4FFF;strokeColor=#ffffff;dashed=0;verticalLabelPosition=bottom;verticalAlign=top;align=center;html=1;fontSize=12;fontStyle=0;aspect=fixed;shape=mxgraph.aws4.resourceIcon;resIcon=mxgraph.aws4.kinesis_data_analytics;" vertex="1" parent="1">
          <mxGeometry x="1640" y="501.8" width="50" height="50" as="geometry" />
        </mxCell>
        <mxCell id="VlhuwPT00PU0j__g9Q57-151" style="edgeStyle=orthogonalEdgeStyle;rounded=0;orthogonalLoop=1;jettySize=auto;html=1;" edge="1" parent="1" source="VlhuwPT00PU0j__g9Q57-76" target="VlhuwPT00PU0j__g9Q57-126">
          <mxGeometry relative="1" as="geometry">
            <Array as="points">
              <mxPoint x="1320" y="670" />
              <mxPoint x="867" y="670" />
            </Array>
          </mxGeometry>
        </mxCell>
        <mxCell id="VlhuwPT00PU0j__g9Q57-76" value="" style="sketch=0;points=[[0,0,0],[0.25,0,0],[0.5,0,0],[0.75,0,0],[1,0,0],[0,1,0],[0.25,1,0],[0.5,1,0],[0.75,1,0],[1,1,0],[0,0.25,0],[0,0.5,0],[0,0.75,0],[1,0.25,0],[1,0.5,0],[1,0.75,0]];outlineConnect=0;fontColor=#232F3E;fillColor=#7AA116;strokeColor=#ffffff;dashed=0;verticalLabelPosition=bottom;verticalAlign=top;align=center;html=1;fontSize=12;fontStyle=0;aspect=fixed;shape=mxgraph.aws4.resourceIcon;resIcon=mxgraph.aws4.reserved_instance_reporting;" vertex="1" parent="1">
          <mxGeometry x="1300" y="540" width="40" height="40" as="geometry" />
        </mxCell>
        <mxCell id="VlhuwPT00PU0j__g9Q57-77" value="&lt;b&gt;Spring Cloud&lt;/b&gt;" style="text;html=1;align=center;verticalAlign=middle;whiteSpace=wrap;rounded=0;" vertex="1" parent="1">
          <mxGeometry x="1338" y="545" width="102" height="30" as="geometry" />
        </mxCell>
        <mxCell id="VlhuwPT00PU0j__g9Q57-78" value="&lt;b&gt;Business Search Cluster&lt;/b&gt;" style="sketch=0;points=[[0,0,0],[0.25,0,0],[0.5,0,0],[0.75,0,0],[1,0,0],[0,1,0],[0.25,1,0],[0.5,1,0],[0.75,1,0],[1,1,0],[0,0.25,0],[0,0.5,0],[0,0.75,0],[1,0.25,0],[1,0.5,0],[1,0.75,0]];outlineConnect=0;fontColor=#232F3E;fillColor=#8C4FFF;strokeColor=#ffffff;dashed=0;verticalLabelPosition=bottom;verticalAlign=top;align=center;html=1;fontSize=12;fontStyle=0;aspect=fixed;shape=mxgraph.aws4.resourceIcon;resIcon=mxgraph.aws4.cloudsearch2;" vertex="1" parent="1">
          <mxGeometry x="1643" y="422.8" width="50" height="50" as="geometry" />
        </mxCell>
        <mxCell id="VlhuwPT00PU0j__g9Q57-79" value="&lt;b&gt;Log Anylysis Plafrom&lt;/b&gt;" style="sketch=0;points=[[0,0,0],[0.25,0,0],[0.5,0,0],[0.75,0,0],[1,0,0],[0,1,0],[0.25,1,0],[0.5,1,0],[0.75,1,0],[1,1,0],[0,0.25,0],[0,0.5,0],[0,0.75,0],[1,0.25,0],[1,0.5,0],[1,0.75,0]];outlineConnect=0;fontColor=#232F3E;fillColor=#8C4FFF;strokeColor=#ffffff;dashed=0;verticalLabelPosition=bottom;verticalAlign=top;align=center;html=1;fontSize=12;fontStyle=0;aspect=fixed;shape=mxgraph.aws4.resourceIcon;resIcon=mxgraph.aws4.analytics;" vertex="1" parent="1">
          <mxGeometry x="1778" y="500.55" width="50" height="50" as="geometry" />
        </mxCell>
        <mxCell id="VlhuwPT00PU0j__g9Q57-80" value="" style="edgeStyle=elbowEdgeStyle;elbow=vertical;endArrow=classic;html=1;curved=0;rounded=0;endSize=8;startSize=8;exitX=0.177;exitY=0.004;exitDx=0;exitDy=0;exitPerimeter=0;" edge="1" parent="1" source="VlhuwPT00PU0j__g9Q57-18">
          <mxGeometry width="50" height="50" relative="1" as="geometry">
            <mxPoint x="650" y="300" as="sourcePoint" />
            <mxPoint x="700" y="250" as="targetPoint" />
          </mxGeometry>
        </mxCell>
        <mxCell id="VlhuwPT00PU0j__g9Q57-81" value="Collect the metric" style="edgeLabel;html=1;align=center;verticalAlign=middle;resizable=0;points=[];" vertex="1" connectable="0" parent="VlhuwPT00PU0j__g9Q57-80">
          <mxGeometry x="0.3327" y="-1" relative="1" as="geometry">
            <mxPoint x="22" as="offset" />
          </mxGeometry>
        </mxCell>
        <mxCell id="VlhuwPT00PU0j__g9Q57-83" value="" style="endArrow=classic;html=1;rounded=0;" edge="1" parent="1">
          <mxGeometry width="50" height="50" relative="1" as="geometry">
            <mxPoint x="949" y="291" as="sourcePoint" />
            <mxPoint x="948.1599999999999" y="220" as="targetPoint" />
          </mxGeometry>
        </mxCell>
        <mxCell id="VlhuwPT00PU0j__g9Q57-84" value="Register the service" style="edgeLabel;html=1;align=center;verticalAlign=middle;resizable=0;points=[];" vertex="1" connectable="0" parent="VlhuwPT00PU0j__g9Q57-83">
          <mxGeometry x="0.1952" relative="1" as="geometry">
            <mxPoint y="5" as="offset" />
          </mxGeometry>
        </mxCell>
        <mxCell id="VlhuwPT00PU0j__g9Q57-85" value="" style="endArrow=classic;html=1;rounded=0;exitX=0.5;exitY=1;exitDx=0;exitDy=0;entryX=0.362;entryY=0.003;entryDx=0;entryDy=0;entryPerimeter=0;" edge="1" parent="1" source="VlhuwPT00PU0j__g9Q57-25" target="VlhuwPT00PU0j__g9Q57-60">
          <mxGeometry width="50" height="50" relative="1" as="geometry">
            <mxPoint x="1170" y="217" as="sourcePoint" />
            <mxPoint x="1170" y="283" as="targetPoint" />
          </mxGeometry>
        </mxCell>
        <mxCell id="VlhuwPT00PU0j__g9Q57-86" value="Fetch the config info" style="edgeLabel;html=1;align=center;verticalAlign=middle;resizable=0;points=[];" vertex="1" connectable="0" parent="VlhuwPT00PU0j__g9Q57-85">
          <mxGeometry x="0.1952" relative="1" as="geometry">
            <mxPoint y="-7" as="offset" />
          </mxGeometry>
        </mxCell>
        <mxCell id="VlhuwPT00PU0j__g9Q57-87" value="" style="rounded=1;whiteSpace=wrap;html=1;dashed=1;dashPattern=12 12;" vertex="1" parent="1">
          <mxGeometry x="1305" y="357.75" width="65" height="160" as="geometry" />
        </mxCell>
        <mxCell id="VlhuwPT00PU0j__g9Q57-88" value="" style="sketch=0;points=[[0,0,0],[0.25,0,0],[0.5,0,0],[0.75,0,0],[1,0,0],[0,1,0],[0.25,1,0],[0.5,1,0],[0.75,1,0],[1,1,0],[0,0.25,0],[0,0.5,0],[0,0.75,0],[1,0.25,0],[1,0.5,0],[1,0.75,0]];outlineConnect=0;fontColor=#232F3E;fillColor=#ED7100;strokeColor=#ffffff;dashed=0;verticalLabelPosition=bottom;verticalAlign=top;align=center;html=1;fontSize=12;fontStyle=0;aspect=fixed;shape=mxgraph.aws4.resourceIcon;resIcon=mxgraph.aws4.containers;" vertex="1" parent="1">
          <mxGeometry x="1312.5" y="378.75" width="50" height="50" as="geometry" />
        </mxCell>
        <mxCell id="VlhuwPT00PU0j__g9Q57-89" value="" style="sketch=0;points=[[0,0,0],[0.25,0,0],[0.5,0,0],[0.75,0,0],[1,0,0],[0,1,0],[0.25,1,0],[0.5,1,0],[0.75,1,0],[1,1,0],[0,0.25,0],[0,0.5,0],[0,0.75,0],[1,0.25,0],[1,0.5,0],[1,0.75,0]];outlineConnect=0;fontColor=#232F3E;fillColor=#ED7100;strokeColor=#ffffff;dashed=0;verticalLabelPosition=bottom;verticalAlign=top;align=center;html=1;fontSize=12;fontStyle=0;aspect=fixed;shape=mxgraph.aws4.resourceIcon;resIcon=mxgraph.aws4.containers;" vertex="1" parent="1">
          <mxGeometry x="1312.5" y="452.75" width="50" height="50" as="geometry" />
        </mxCell>
        <mxCell id="VlhuwPT00PU0j__g9Q57-93" value="" style="rounded=1;whiteSpace=wrap;html=1;dashed=1;dashPattern=12 12;" vertex="1" parent="1">
          <mxGeometry x="1390" y="356" width="65" height="160" as="geometry" />
        </mxCell>
        <mxCell id="VlhuwPT00PU0j__g9Q57-94" value="" style="sketch=0;points=[[0,0,0],[0.25,0,0],[0.5,0,0],[0.75,0,0],[1,0,0],[0,1,0],[0.25,1,0],[0.5,1,0],[0.75,1,0],[1,1,0],[0,0.25,0],[0,0.5,0],[0,0.75,0],[1,0.25,0],[1,0.5,0],[1,0.75,0]];outlineConnect=0;fontColor=#232F3E;fillColor=#ED7100;strokeColor=#ffffff;dashed=0;verticalLabelPosition=bottom;verticalAlign=top;align=center;html=1;fontSize=12;fontStyle=0;aspect=fixed;shape=mxgraph.aws4.resourceIcon;resIcon=mxgraph.aws4.containers;" vertex="1" parent="1">
          <mxGeometry x="1397.5" y="377" width="50" height="50" as="geometry" />
        </mxCell>
        <mxCell id="VlhuwPT00PU0j__g9Q57-95" value="" style="sketch=0;points=[[0,0,0],[0.25,0,0],[0.5,0,0],[0.75,0,0],[1,0,0],[0,1,0],[0.25,1,0],[0.5,1,0],[0.75,1,0],[1,1,0],[0,0.25,0],[0,0.5,0],[0,0.75,0],[1,0.25,0],[1,0.5,0],[1,0.75,0]];outlineConnect=0;fontColor=#232F3E;fillColor=#ED7100;strokeColor=#ffffff;dashed=0;verticalLabelPosition=bottom;verticalAlign=top;align=center;html=1;fontSize=12;fontStyle=0;aspect=fixed;shape=mxgraph.aws4.resourceIcon;resIcon=mxgraph.aws4.containers;" vertex="1" parent="1">
          <mxGeometry x="1397.5" y="451" width="50" height="50" as="geometry" />
        </mxCell>
        <mxCell id="VlhuwPT00PU0j__g9Q57-96" value="" style="rounded=1;whiteSpace=wrap;html=1;dashed=1;dashPattern=12 12;" vertex="1" parent="1">
          <mxGeometry x="1470" y="356" width="65" height="160" as="geometry" />
        </mxCell>
        <mxCell id="VlhuwPT00PU0j__g9Q57-97" value="" style="sketch=0;points=[[0,0,0],[0.25,0,0],[0.5,0,0],[0.75,0,0],[1,0,0],[0,1,0],[0.25,1,0],[0.5,1,0],[0.75,1,0],[1,1,0],[0,0.25,0],[0,0.5,0],[0,0.75,0],[1,0.25,0],[1,0.5,0],[1,0.75,0]];outlineConnect=0;fontColor=#232F3E;fillColor=#ED7100;strokeColor=#ffffff;dashed=0;verticalLabelPosition=bottom;verticalAlign=top;align=center;html=1;fontSize=12;fontStyle=0;aspect=fixed;shape=mxgraph.aws4.resourceIcon;resIcon=mxgraph.aws4.containers;" vertex="1" parent="1">
          <mxGeometry x="1477.5" y="377" width="50" height="50" as="geometry" />
        </mxCell>
        <mxCell id="VlhuwPT00PU0j__g9Q57-98" value="" style="sketch=0;points=[[0,0,0],[0.25,0,0],[0.5,0,0],[0.75,0,0],[1,0,0],[0,1,0],[0.25,1,0],[0.5,1,0],[0.75,1,0],[1,1,0],[0,0.25,0],[0,0.5,0],[0,0.75,0],[1,0.25,0],[1,0.5,0],[1,0.75,0]];outlineConnect=0;fontColor=#232F3E;fillColor=#ED7100;strokeColor=#ffffff;dashed=0;verticalLabelPosition=bottom;verticalAlign=top;align=center;html=1;fontSize=12;fontStyle=0;aspect=fixed;shape=mxgraph.aws4.resourceIcon;resIcon=mxgraph.aws4.containers;" vertex="1" parent="1">
          <mxGeometry x="1477.5" y="451" width="50" height="50" as="geometry" />
        </mxCell>
        <mxCell id="VlhuwPT00PU0j__g9Q57-99" value="" style="endArrow=classic;html=1;rounded=0;exitX=0.412;exitY=0.787;exitDx=0;exitDy=0;exitPerimeter=0;dashed=1;entryX=-0.006;entryY=0.468;entryDx=0;entryDy=0;entryPerimeter=0;" edge="1" parent="1">
          <mxGeometry width="50" height="50" relative="1" as="geometry">
            <mxPoint x="912.7999999999997" y="442.8" as="sourcePoint" />
            <mxPoint x="1018.8740000000003" y="442.03999999999996" as="targetPoint" />
          </mxGeometry>
        </mxCell>
        <mxCell id="VlhuwPT00PU0j__g9Q57-101" value="" style="edgeStyle=orthogonalEdgeStyle;html=1;endArrow=block;elbow=vertical;startArrow=block;startFill=1;endFill=1;strokeColor=#545B64;rounded=0;" edge="1" parent="1">
          <mxGeometry width="100" relative="1" as="geometry">
            <mxPoint x="1543" y="370" as="sourcePoint" />
            <mxPoint x="1643" y="370" as="targetPoint" />
          </mxGeometry>
        </mxCell>
        <mxCell id="VlhuwPT00PU0j__g9Q57-102" value="" style="edgeStyle=orthogonalEdgeStyle;html=1;endArrow=block;elbow=vertical;startArrow=block;startFill=1;endFill=1;strokeColor=#545B64;rounded=0;" edge="1" parent="1">
          <mxGeometry width="100" relative="1" as="geometry">
            <mxPoint x="1540" y="450" as="sourcePoint" />
            <mxPoint x="1640" y="450" as="targetPoint" />
          </mxGeometry>
        </mxCell>
        <mxCell id="VlhuwPT00PU0j__g9Q57-103" value="" style="edgeStyle=orthogonalEdgeStyle;html=1;endArrow=openThin;elbow=vertical;startArrow=none;endFill=0;strokeColor=#545B64;rounded=0;" edge="1" parent="1">
          <mxGeometry width="100" relative="1" as="geometry">
            <mxPoint x="1540" y="530" as="sourcePoint" />
            <mxPoint x="1640" y="530" as="targetPoint" />
          </mxGeometry>
        </mxCell>
        <mxCell id="VlhuwPT00PU0j__g9Q57-104" value="" style="edgeStyle=orthogonalEdgeStyle;html=1;endArrow=openThin;elbow=vertical;startArrow=none;endFill=0;strokeColor=#545B64;rounded=0;" edge="1" parent="1">
          <mxGeometry width="100" relative="1" as="geometry">
            <mxPoint x="1696" y="530" as="sourcePoint" />
            <mxPoint x="1775" y="530" as="targetPoint" />
          </mxGeometry>
        </mxCell>
        <mxCell id="VlhuwPT00PU0j__g9Q57-105" value="" style="edgeStyle=orthogonalEdgeStyle;html=1;endArrow=openThin;elbow=vertical;startArrow=none;endFill=0;strokeColor=#545B64;rounded=0;" edge="1" parent="1">
          <mxGeometry width="100" relative="1" as="geometry">
            <mxPoint x="1143" y="400" as="sourcePoint" />
            <mxPoint x="1218" y="400" as="targetPoint" />
          </mxGeometry>
        </mxCell>
        <mxCell id="VlhuwPT00PU0j__g9Q57-106" value="" style="edgeStyle=orthogonalEdgeStyle;html=1;endArrow=none;elbow=vertical;startArrow=openThin;startFill=0;strokeColor=#545B64;rounded=0;" edge="1" parent="1">
          <mxGeometry width="100" relative="1" as="geometry">
            <mxPoint x="1143" y="470" as="sourcePoint" />
            <mxPoint x="1215" y="470" as="targetPoint" />
          </mxGeometry>
        </mxCell>
        <mxCell id="VlhuwPT00PU0j__g9Q57-107" value="Fegin Client" style="text;html=1;align=center;verticalAlign=middle;whiteSpace=wrap;rounded=0;" vertex="1" parent="1">
          <mxGeometry x="1148" y="377" width="70" height="30" as="geometry" />
        </mxCell>
        <mxCell id="VlhuwPT00PU0j__g9Q57-108" value="Fegin Client" style="text;html=1;align=center;verticalAlign=middle;whiteSpace=wrap;rounded=0;" vertex="1" parent="1">
          <mxGeometry x="1148" y="443" width="70" height="30" as="geometry" />
        </mxCell>
        <mxCell id="VlhuwPT00PU0j__g9Q57-113" value="" style="edgeStyle=orthogonalEdgeStyle;html=1;endArrow=block;elbow=vertical;startArrow=none;endFill=1;strokeColor=#545B64;rounded=0;" edge="1" parent="1">
          <mxGeometry width="100" relative="1" as="geometry">
            <mxPoint x="317" y="444.34999999999997" as="sourcePoint" />
            <mxPoint x="337" y="444.34999999999997" as="targetPoint" />
            <Array as="points">
              <mxPoint x="289" y="444.34999999999997" />
              <mxPoint x="289" y="444.34999999999997" />
            </Array>
          </mxGeometry>
        </mxCell>
        <mxCell id="VlhuwPT00PU0j__g9Q57-114" value="" style="edgeStyle=orthogonalEdgeStyle;html=1;endArrow=block;elbow=vertical;startArrow=none;endFill=1;strokeColor=#545B64;rounded=0;" edge="1" parent="1">
          <mxGeometry width="100" relative="1" as="geometry">
            <mxPoint x="418" y="441.54999999999995" as="sourcePoint" />
            <mxPoint x="438" y="441.54999999999995" as="targetPoint" />
            <Array as="points">
              <mxPoint x="390" y="441.54999999999995" />
              <mxPoint x="390" y="441.54999999999995" />
            </Array>
          </mxGeometry>
        </mxCell>
        <mxCell id="VlhuwPT00PU0j__g9Q57-115" value="" style="edgeStyle=orthogonalEdgeStyle;html=1;endArrow=block;elbow=vertical;startArrow=none;endFill=1;strokeColor=#545B64;rounded=0;" edge="1" parent="1">
          <mxGeometry width="100" relative="1" as="geometry">
            <mxPoint x="519" y="443.54999999999995" as="sourcePoint" />
            <mxPoint x="527" y="443.54999999999995" as="targetPoint" />
            <Array as="points">
              <mxPoint x="491" y="443.54999999999995" />
              <mxPoint x="491" y="443.54999999999995" />
            </Array>
          </mxGeometry>
        </mxCell>
        <mxCell id="VlhuwPT00PU0j__g9Q57-119" value="" style="edgeStyle=orthogonalEdgeStyle;html=1;endArrow=block;elbow=vertical;startArrow=none;endFill=1;strokeColor=#545B64;rounded=0;" edge="1" parent="1">
          <mxGeometry width="100" relative="1" as="geometry">
            <mxPoint x="610" y="444.54999999999995" as="sourcePoint" />
            <mxPoint x="618" y="444.54999999999995" as="targetPoint" />
            <Array as="points">
              <mxPoint x="582" y="444.54999999999995" />
              <mxPoint x="582" y="444.54999999999995" />
            </Array>
          </mxGeometry>
        </mxCell>
        <mxCell id="VlhuwPT00PU0j__g9Q57-120" value="" style="edgeStyle=orthogonalEdgeStyle;html=1;endArrow=block;elbow=vertical;startArrow=block;startFill=1;endFill=1;strokeColor=#545B64;rounded=0;" edge="1" parent="1">
          <mxGeometry width="100" relative="1" as="geometry">
            <mxPoint x="679" y="445.35" as="sourcePoint" />
            <mxPoint x="729" y="445.35" as="targetPoint" />
          </mxGeometry>
        </mxCell>
        <mxCell id="VlhuwPT00PU0j__g9Q57-121" value="" style="endArrow=classic;html=1;rounded=0;exitX=0.5;exitY=1;exitDx=0;exitDy=0;entryX=0.362;entryY=0.003;entryDx=0;entryDy=0;entryPerimeter=0;" edge="1" parent="1">
          <mxGeometry width="50" height="50" relative="1" as="geometry">
            <mxPoint x="1398.5" y="216" as="sourcePoint" />
            <mxPoint x="1397.5" y="310" as="targetPoint" />
          </mxGeometry>
        </mxCell>
        <mxCell id="VlhuwPT00PU0j__g9Q57-122" value="Download File" style="edgeLabel;html=1;align=center;verticalAlign=middle;resizable=0;points=[];" vertex="1" connectable="0" parent="VlhuwPT00PU0j__g9Q57-121">
          <mxGeometry x="0.1952" relative="1" as="geometry">
            <mxPoint y="-12" as="offset" />
          </mxGeometry>
        </mxCell>
        <mxCell id="VlhuwPT00PU0j__g9Q57-124" value="" style="endArrow=classic;html=1;rounded=0;exitX=0.5;exitY=1;exitDx=0;exitDy=0;entryX=0.362;entryY=0.003;entryDx=0;entryDy=0;entryPerimeter=0;" edge="1" parent="1">
          <mxGeometry width="50" height="50" relative="1" as="geometry">
            <mxPoint x="1470" y="311" as="sourcePoint" />
            <mxPoint x="1471" y="217" as="targetPoint" />
          </mxGeometry>
        </mxCell>
        <mxCell id="VlhuwPT00PU0j__g9Q57-125" value="Upload File" style="edgeLabel;html=1;align=center;verticalAlign=middle;resizable=0;points=[];" vertex="1" connectable="0" parent="VlhuwPT00PU0j__g9Q57-124">
          <mxGeometry x="0.1952" relative="1" as="geometry">
            <mxPoint x="3" y="4" as="offset" />
          </mxGeometry>
        </mxCell>
        <mxCell id="VlhuwPT00PU0j__g9Q57-126" value="&lt;b&gt;Distubuting Tracing&lt;/b&gt;" style="sketch=0;outlineConnect=0;fontColor=#232F3E;gradientColor=none;fillColor=#8C4FFF;strokeColor=none;dashed=0;verticalLabelPosition=bottom;verticalAlign=top;align=center;html=1;fontSize=12;fontStyle=0;aspect=fixed;pointerEvents=1;shape=mxgraph.aws4.opensearch_service_data_node;" vertex="1" parent="1">
          <mxGeometry x="842" y="720" width="50" height="50" as="geometry" />
        </mxCell>
        <mxCell id="VlhuwPT00PU0j__g9Q57-128" value="&lt;b&gt;Cache System&lt;/b&gt;" style="sketch=0;points=[[0,0,0],[0.25,0,0],[0.5,0,0],[0.75,0,0],[1,0,0],[0,1,0],[0.25,1,0],[0.5,1,0],[0.75,1,0],[1,1,0],[0,0.25,0],[0,0.5,0],[0,0.75,0],[1,0.25,0],[1,0.5,0],[1,0.75,0]];outlineConnect=0;fontColor=#232F3E;fillColor=#C925D1;strokeColor=#ffffff;dashed=0;verticalLabelPosition=bottom;verticalAlign=top;align=center;html=1;fontSize=12;fontStyle=0;aspect=fixed;shape=mxgraph.aws4.resourceIcon;resIcon=mxgraph.aws4.memorydb_for_redis;direction=south;" vertex="1" parent="1">
          <mxGeometry x="1033" y="730" width="50" height="50" as="geometry" />
        </mxCell>
        <mxCell id="VlhuwPT00PU0j__g9Q57-131" value="" style="rounded=1;whiteSpace=wrap;html=1;dashed=1;dashPattern=12 12;fillColor=#f8cecc;strokeColor=#b85450;" vertex="1" parent="1">
          <mxGeometry x="1390" y="630" width="230" height="170" as="geometry" />
        </mxCell>
        <mxCell id="VlhuwPT00PU0j__g9Q57-141" value="" style="edgeStyle=orthogonalEdgeStyle;rounded=0;orthogonalLoop=1;jettySize=auto;html=1;" edge="1" parent="1" source="VlhuwPT00PU0j__g9Q57-129" target="VlhuwPT00PU0j__g9Q57-138">
          <mxGeometry relative="1" as="geometry" />
        </mxCell>
        <mxCell id="VlhuwPT00PU0j__g9Q57-142" value="&lt;font style=&quot;font-size: 13px;&quot;&gt;Binlog&lt;/font&gt;" style="edgeLabel;html=1;align=center;verticalAlign=middle;resizable=0;points=[];" vertex="1" connectable="0" parent="VlhuwPT00PU0j__g9Q57-141">
          <mxGeometry x="0.273" y="-5" relative="1" as="geometry">
            <mxPoint x="21" as="offset" />
          </mxGeometry>
        </mxCell>
        <mxCell id="VlhuwPT00PU0j__g9Q57-129" value="Master" style="sketch=0;outlineConnect=0;fontColor=#232F3E;gradientColor=none;fillColor=#C925D1;strokeColor=none;dashed=0;verticalLabelPosition=bottom;verticalAlign=top;align=center;html=1;fontSize=12;fontStyle=0;aspect=fixed;pointerEvents=1;shape=mxgraph.aws4.rds_mysql_instance;" vertex="1" parent="1">
          <mxGeometry x="1432.5" y="730" width="50" height="50" as="geometry" />
        </mxCell>
        <mxCell id="VlhuwPT00PU0j__g9Q57-130" value="Slave" style="sketch=0;outlineConnect=0;fontColor=#232F3E;gradientColor=none;fillColor=#C925D1;strokeColor=none;dashed=0;verticalLabelPosition=bottom;verticalAlign=top;align=center;html=1;fontSize=12;fontStyle=0;aspect=fixed;pointerEvents=1;shape=mxgraph.aws4.rds_mysql_instance;" vertex="1" parent="1">
          <mxGeometry x="1520" y="730" width="50" height="50" as="geometry" />
        </mxCell>
        <mxCell id="VlhuwPT00PU0j__g9Q57-133" value="DMDS" style="sketch=0;outlineConnect=0;fontColor=#232F3E;gradientColor=none;fillColor=#8C4FFF;strokeColor=none;dashed=0;verticalLabelPosition=bottom;verticalAlign=top;align=center;html=1;fontSize=12;fontStyle=0;aspect=fixed;pointerEvents=1;shape=mxgraph.aws4.data_lake_resource_icon;" vertex="1" parent="1">
          <mxGeometry x="1480" y="640" width="50" height="50" as="geometry" />
        </mxCell>
        <mxCell id="VlhuwPT00PU0j__g9Q57-134" value="" style="endArrow=classic;startArrow=classic;html=1;rounded=0;" edge="1" parent="1">
          <mxGeometry width="50" height="50" relative="1" as="geometry">
            <mxPoint x="1500" y="640" as="sourcePoint" />
            <mxPoint x="1450" y="590" as="targetPoint" />
          </mxGeometry>
        </mxCell>
        <mxCell id="VlhuwPT00PU0j__g9Q57-135" value="" style="edgeStyle=elbowEdgeStyle;elbow=vertical;endArrow=classic;html=1;curved=0;rounded=0;endSize=8;startSize=8;" edge="1" parent="1" source="VlhuwPT00PU0j__g9Q57-129">
          <mxGeometry width="50" height="50" relative="1" as="geometry">
            <mxPoint x="1447.5" y="740" as="sourcePoint" />
            <mxPoint x="1497.5" y="690" as="targetPoint" />
            <Array as="points" />
          </mxGeometry>
        </mxCell>
        <mxCell id="VlhuwPT00PU0j__g9Q57-137" value="" style="edgeStyle=elbowEdgeStyle;elbow=vertical;endArrow=classic;html=1;curved=0;rounded=0;endSize=8;startSize=8;" edge="1" parent="1">
          <mxGeometry width="50" height="50" relative="1" as="geometry">
            <mxPoint x="1542" y="730.0636884723865" as="sourcePoint" />
            <mxPoint x="1497" y="690" as="targetPoint" />
          </mxGeometry>
        </mxCell>
        <mxCell id="VlhuwPT00PU0j__g9Q57-145" value="" style="edgeStyle=orthogonalEdgeStyle;rounded=0;orthogonalLoop=1;jettySize=auto;html=1;" edge="1" parent="1" source="VlhuwPT00PU0j__g9Q57-138" target="VlhuwPT00PU0j__g9Q57-139">
          <mxGeometry relative="1" as="geometry" />
        </mxCell>
        <mxCell id="VlhuwPT00PU0j__g9Q57-138" value="&lt;b&gt;CDC Monitor&lt;/b&gt;" style="sketch=0;points=[[0,0,0],[0.25,0,0],[0.5,0,0],[0.75,0,0],[1,0,0],[0,1,0],[0.25,1,0],[0.5,1,0],[0.75,1,0],[1,1,0],[0,0.25,0],[0,0.5,0],[0,0.75,0],[1,0.25,0],[1,0.5,0],[1,0.75,0]];outlineConnect=0;fontColor=#232F3E;fillColor=#C925D1;strokeColor=#ffffff;dashed=0;verticalLabelPosition=bottom;verticalAlign=top;align=center;html=1;fontSize=12;fontStyle=0;aspect=fixed;shape=mxgraph.aws4.resourceIcon;resIcon=mxgraph.aws4.developer_tools;" vertex="1" parent="1">
          <mxGeometry x="1277.5" y="730" width="50" height="50" as="geometry" />
        </mxCell>
        <mxCell id="VlhuwPT00PU0j__g9Q57-139" value="&lt;b&gt;Messaging System&lt;/b&gt;" style="sketch=0;outlineConnect=0;fontColor=#232F3E;gradientColor=none;fillColor=#C925D1;strokeColor=none;dashed=0;verticalLabelPosition=bottom;verticalAlign=top;align=center;html=1;fontSize=12;fontStyle=0;aspect=fixed;pointerEvents=1;shape=mxgraph.aws4.attributes;" vertex="1" parent="1">
          <mxGeometry x="1154" y="730" width="50" height="50" as="geometry" />
        </mxCell>
        <mxCell id="VlhuwPT00PU0j__g9Q57-143" value="ZA BLCS" style="text;html=1;align=center;verticalAlign=middle;whiteSpace=wrap;rounded=0;" vertex="1" parent="1">
          <mxGeometry x="1312.5" y="710" width="60" height="30" as="geometry" />
        </mxCell>
        <mxCell id="VlhuwPT00PU0j__g9Q57-146" value="Kafka" style="text;html=1;align=center;verticalAlign=middle;whiteSpace=wrap;rounded=0;" vertex="1" parent="1">
          <mxGeometry x="1185" y="710" width="60" height="30" as="geometry" />
        </mxCell>
        <mxCell id="VlhuwPT00PU0j__g9Q57-147" value="Redis" style="text;html=1;align=center;verticalAlign=middle;whiteSpace=wrap;rounded=0;" vertex="1" parent="1">
          <mxGeometry x="1068" y="711" width="60" height="30" as="geometry" />
        </mxCell>
        <mxCell id="VlhuwPT00PU0j__g9Q57-148" value="" style="shape=flexArrow;endArrow=classic;startArrow=classic;html=1;rounded=0;" edge="1" parent="1" source="VlhuwPT00PU0j__g9Q57-139">
          <mxGeometry width="100" height="100" relative="1" as="geometry">
            <mxPoint x="1350.0346264903128" y="690" as="sourcePoint" />
            <mxPoint x="1180" y="590" as="targetPoint" />
          </mxGeometry>
        </mxCell>
        <mxCell id="VlhuwPT00PU0j__g9Q57-149" value="" style="endArrow=classic;html=1;rounded=0;exitX=0;exitY=0.75;exitDx=0;exitDy=0;" edge="1" parent="1" source="VlhuwPT00PU0j__g9Q57-147">
          <mxGeometry width="50" height="50" relative="1" as="geometry">
            <mxPoint x="1020" y="640" as="sourcePoint" />
            <mxPoint x="1070" y="590" as="targetPoint" />
          </mxGeometry>
        </mxCell>
        <mxCell id="VlhuwPT00PU0j__g9Q57-150" value="" style="endArrow=classic;html=1;rounded=0;exitX=0.419;exitY=0.044;exitDx=0;exitDy=0;exitPerimeter=0;" edge="1" parent="1" source="VlhuwPT00PU0j__g9Q57-59" target="VlhuwPT00PU0j__g9Q57-126">
          <mxGeometry width="50" height="50" relative="1" as="geometry">
            <mxPoint x="890" y="675.3333333333335" as="sourcePoint" />
            <mxPoint x="840" y="675.3333333333335" as="targetPoint" />
          </mxGeometry>
        </mxCell>
        <mxCell id="VlhuwPT00PU0j__g9Q57-152" value="Distributed Database&amp;nbsp;&lt;br&gt;Middleware" style="text;html=1;align=center;verticalAlign=middle;whiteSpace=wrap;rounded=0;" vertex="1" parent="1">
          <mxGeometry x="1544" y="661" width="60" height="30" as="geometry" />
        </mxCell>
        <mxCell id="VlhuwPT00PU0j__g9Q57-153" value="&lt;b&gt;Devices Client&lt;/b&gt;" style="sketch=0;outlineConnect=0;gradientColor=none;fontColor=#545B64;strokeColor=none;fillColor=#879196;dashed=0;verticalLabelPosition=bottom;verticalAlign=top;align=center;html=1;fontSize=12;fontStyle=0;aspect=fixed;shape=mxgraph.aws4.illustration_devices;pointerEvents=1" vertex="1" parent="1">
          <mxGeometry x="60" y="516" width="80" height="58.4" as="geometry" />
        </mxCell>
        <mxCell id="VlhuwPT00PU0j__g9Q57-154" value="&lt;b&gt;Devices Client&lt;/b&gt;" style="sketch=0;outlineConnect=0;gradientColor=none;fontColor=#545B64;strokeColor=none;fillColor=#879196;dashed=0;verticalLabelPosition=bottom;verticalAlign=top;align=center;html=1;fontSize=12;fontStyle=0;aspect=fixed;shape=mxgraph.aws4.illustration_devices;pointerEvents=1" vertex="1" parent="1">
          <mxGeometry x="60" y="310" width="80" height="58.4" as="geometry" />
        </mxCell>
      </root>
    </mxGraphModel>
  </diagram>
</mxfile>
